<?xml version="1.0" encoding="utf-8"?>
<!-- Generator: Adobe Illustrator 24.0.1, SVG Export Plug-In . SVG Version: 6.00 Build 0)  -->
<svg version="1.0" id="Layer_1" xmlns="http://www.w3.org/2000/svg" xmlns:xlink="http://www.w3.org/1999/xlink" x="0px" y="0px"
	 viewBox="0 0 80 80" style="enable-background:new 0 0 80 80;" xml:space="preserve">
<style type="text/css">
	.st0{fill-rule:evenodd;clip-rule:evenodd;fill:#6082BB;}
	.st1{fill:#F51FFF;}
	.st2{fill:#5EDF00;}
	.st3{fill:#FFF400;}
	.st4{fill:#D43D44;}
</style>
<rect id="rect4138" class="st0" width="80" height="80"/>
<path id="path3486" class="st1" d="M18.8,62c1.9,0,3.2-0.4,4.1-1.1c0.9-0.7,1.5-2,1.8-3.8c0.3-1.7,0.2-2.8-0.3-3.4
	c-0.5-0.6-1.6-1-3.4-1h-3L16.4,62H18.8z M9.1,73.4c-0.1,0-0.3-0.1-0.4-0.2c-0.1-0.1-0.1-0.3-0.1-0.4L13,48.2c0-0.2,0.2-0.4,0.4-0.4
	h9.4c2.9,0,5.1,0.9,6.5,2.6c1.4,1.7,1.8,4.2,1.3,7.2c-0.2,1.3-0.6,2.4-1.1,3.4c-0.5,1-1.2,2-2.1,2.9c-1,1-2.2,1.8-3.4,2.3
	c-1.2,0.4-2.8,0.7-4.7,0.7h-3.8L14.5,73c0,0.2-0.2,0.4-0.4,0.4L9.1,73.4L9.1,73.4z"/>
<path id="path3494" class="st2" d="M42.2,66.9c-0.1,0-0.3-0.1-0.3-0.2c-0.1-0.1-0.1-0.3-0.1-0.4l1.9-10.9c0.2-1,0.1-1.8-0.1-2.1
	c-0.2-0.2-0.6-0.5-2.1-0.5H38l-2.4,13.7c0,0.2-0.2,0.4-0.5,0.4h-4.8c-0.1,0-0.3-0.1-0.4-0.2c-0.1-0.1-0.1-0.3-0.1-0.4l4.3-24.6
	c0-0.2,0.2-0.4,0.5-0.4h4.8c0.1,0,0.3,0.1,0.3,0.2c0.1,0.1,0.1,0.3,0.1,0.4l-1,5.9h3.7c2.8,0,4.7,0.6,5.8,1.7c1.1,1.2,1.5,3,1,5.5
	l-2,11.5c0,0.2-0.2,0.4-0.5,0.4L42.2,66.9L42.2,66.9z"/>
<path id="path3502" class="st3" d="M58.2,62c1.9,0,3.4-0.4,4.3-1.1c0.9-0.7,1.5-2,1.8-3.8c0.3-1.7,0.2-2.8-0.3-3.4
	c-0.5-0.6-1.7-1-3.5-1h-3.1L55.7,62H58.2z M48.2,73.4c-0.1,0-0.3-0.1-0.4-0.2c-0.1-0.1-0.1-0.3-0.1-0.4l4.5-24.6
	c0-0.2,0.2-0.4,0.5-0.4h9.7c3.1,0,5.3,0.9,6.8,2.6c1.4,1.7,1.9,4.2,1.3,7.2c-0.2,1.3-0.6,2.4-1.2,3.4c-0.6,1-1.3,2-2.2,2.9
	c-1.1,1-2.3,1.8-3.5,2.3c-1.3,0.4-2.9,0.7-4.9,0.7h-3.9L53.7,73c0,0.2-0.2,0.4-0.5,0.4L48.2,73.4L48.2,73.4z"/>
<path class="st4" d="M20,22.9v6.2c0,3.4,9,6.2,20,6.2v-6.2C29,29.1,20,26.3,20,22.9z M40,16.7l15.6,3.8c2.7-1.1,4.4-2.4,4.4-3.8
	v-6.2c0-3.4-9-6.2-20-6.2S20,7,20,10.5v6.2c0,3.4,9,6.2,20,6.2V16.7z M55.6,26.7L40,22.9v6.2l15.6,3.9c2.7-1,4.4-2.4,4.4-3.9v-6.2
	C60,24.3,58.4,25.7,55.6,26.7z"/>
</svg>
